<svg width="1440" height="923" viewBox="0 0 1440 923" fill="none" xmlns="http://www.w3.org/2000/svg">
<g clip-path="url(#clip0_61_968)">
<rect width="1440" height="921.6" transform="translate(0 0.60376)" fill="white"/>
<rect y="-156.836" width="240" height="240" rx="26.4828" stroke="#F0F0F0" stroke-width="2.48276"/>
<rect x="240" y="-156.836" width="240" height="240" rx="26.4828" stroke="#F0F0F0" stroke-width="2.48276"/>
<rect x="480" y="-156.836" width="240" height="240" rx="26.4828" stroke="#F0F0F0" stroke-width="2.48276"/>
<rect x="720" y="-156.836" width="240" height="240" rx="26.4828" stroke="#F0F0F0" stroke-width="2.48276"/>
<rect x="960" y="-156.836" width="240" height="240" rx="26.4828" stroke="#F0F0F0" stroke-width="2.48276"/>
<rect x="1200" y="-156.836" width="240" height="240" rx="26.4828" stroke="#F0F0F0" stroke-width="2.48276"/>
<rect y="83.1633" width="240" height="240" rx="26.4828" stroke="#F0F0F0" stroke-width="2.48276"/>
<rect x="240" y="83.1633" width="240" height="240" rx="26.4828" stroke="#F0F0F0" stroke-width="2.48276"/>
<rect x="480" y="83.1633" width="240" height="240" rx="26.4828" stroke="#F0F0F0" stroke-width="2.48276"/>
<rect x="720" y="83.1633" width="240" height="240" rx="26.4828" stroke="#F0F0F0" stroke-width="2.48276"/>
<rect x="960" y="83.1633" width="240" height="240" rx="26.4828" stroke="#F0F0F0" stroke-width="2.48276"/>
<rect x="1200" y="83.1633" width="240" height="240" rx="26.4828" stroke="#F0F0F0" stroke-width="2.48276"/>
<rect y="323.164" width="240" height="240" rx="26.4828" stroke="#F0F0F0" stroke-width="2.48276"/>
<rect x="240" y="323.164" width="240" height="240" rx="26.4828" stroke="#F0F0F0" stroke-width="2.48276"/>
<rect x="480" y="323.164" width="240" height="240" rx="26.4828" stroke="#F0F0F0" stroke-width="2.48276"/>
<rect x="720" y="323.164" width="240" height="240" rx="26.4828" stroke="#F0F0F0" stroke-width="2.48276"/>
<rect x="960" y="323.164" width="240" height="240" rx="26.4828" stroke="#F0F0F0" stroke-width="2.48276"/>
<rect x="1200" y="323.164" width="240" height="240" rx="26.4828" stroke="#F0F0F0" stroke-width="2.48276"/>
<rect y="563.164" width="240" height="240" rx="26.4828" stroke="#F0F0F0" stroke-width="2.48276"/>
<rect x="240" y="563.164" width="240" height="240" rx="26.4828" stroke="#F0F0F0" stroke-width="2.48276"/>
<rect x="480" y="563.164" width="240" height="240" rx="26.4828" stroke="#F0F0F0" stroke-width="2.48276"/>
<rect x="720" y="563.164" width="240" height="240" rx="26.4828" stroke="#F0F0F0" stroke-width="2.48276"/>
<rect x="960" y="563.164" width="240" height="240" rx="26.4828" stroke="#F0F0F0" stroke-width="2.48276"/>
<rect x="1200" y="563.164" width="240" height="240" rx="26.4828" stroke="#F0F0F0" stroke-width="2.48276"/>
<rect y="803.163" width="240" height="240" rx="26.4828" stroke="#F0F0F0" stroke-width="2.48276"/>
<rect x="240" y="803.163" width="240" height="240" rx="26.4828" stroke="#F0F0F0" stroke-width="2.48276"/>
<rect x="480" y="803.163" width="240" height="240" rx="26.4828" stroke="#F0F0F0" stroke-width="2.48276"/>
<rect x="720" y="803.163" width="240" height="240" rx="26.4828" stroke="#F0F0F0" stroke-width="2.48276"/>
<rect x="960" y="803.163" width="240" height="240" rx="26.4828" stroke="#F0F0F0" stroke-width="2.48276"/>
<rect x="1200" y="803.163" width="240" height="240" rx="26.4828" stroke="#F0F0F0" stroke-width="2.48276"/>
<path d="M960 -136.974V56.6813C960 71.3073 971.857 83.164 986.483 83.164H1173.52C1188.14 83.164 1200 95.0208 1200 109.647V296.681C1200 311.307 1211.86 323.164 1226.48 323.164H1413.52C1428.14 323.164 1440 335.021 1440 349.647V536.681C1440 551.307 1451.86 563.164 1466.48 563.164H1653.52C1668.14 563.164 1680 575.021 1680 589.647V776.681C1680 791.307 1691.86 803.164 1706.48 803.164H1900.14M720 -136.974V56.6813C720 71.3073 731.857 83.164 746.483 83.164H933.517C948.143 83.164 960 95.0208 960 109.647V296.681C960 311.307 971.857 323.164 986.483 323.164H1173.52C1188.14 323.164 1200 335.021 1200 349.647V536.681C1200 551.307 1188.14 563.164 1173.52 563.164H986.483C971.857 563.164 960 551.307 960 536.681V346.336L959.768 344.772C957.991 332.777 947.81 323.821 935.686 323.588L913.655 323.164H746.483C731.857 323.164 720 335.021 720 349.647V536.681C720 551.307 731.857 563.164 746.483 563.164H935.172L941.459 563.583C951.893 564.279 960 572.945 960 583.401V603.716M960 583.026V776.681C960 791.307 971.857 803.164 986.483 803.164H1173.52C1188.14 803.164 1200 815.021 1200 829.647V1016.68C1200 1031.31 1211.86 1043.16 1226.48 1043.16H1413.52C1428.14 1043.16 1440 1055.02 1440 1069.65V1256.68C1440 1271.31 1451.86 1283.16 1466.48 1283.16H1653.52C1668.14 1283.16 1680 1295.02 1680 1309.65V1496.68C1680 1511.31 1691.86 1523.16 1706.48 1523.16H1900.14" stroke="url(#paint0_linear_61_968)" stroke-opacity="0.8" stroke-width="2.48276"/>
<rect y="1346.26" width="1345.66" height="720" transform="rotate(-90 0 1346.26)" fill="url(#paint1_linear_61_968)"/>
<rect x="1345.66" y="1523.36" width="1345.66" height="720" transform="rotate(-180 1345.66 1523.36)" fill="url(#paint2_linear_61_968)"/>
<ellipse cx="1078" cy="308" rx="1078" ry="308" transform="matrix(1 0 0 -1 -320 1217.6)" fill="url(#paint3_radial_61_968)"/>
</g>
<defs>
<linearGradient id="paint0_linear_61_968" x1="720" y1="-136.974" x2="1873.66" y2="1290.61" gradientUnits="userSpaceOnUse">
<stop offset="0.0819437" stop-color="#F7F7F7"/>
<stop offset="0.208333" stop-color="#12C2E9"/>
<stop offset="0.526042" stop-color="#C471ED"/>
<stop offset="0.9375" stop-color="#F64F59"/>
</linearGradient>
<linearGradient id="paint1_linear_61_968" x1="672.828" y1="1346.26" x2="672.828" y2="2066.26" gradientUnits="userSpaceOnUse">
<stop stop-color="white"/>
<stop offset="1" stop-color="white" stop-opacity="0"/>
</linearGradient>
<linearGradient id="paint2_linear_61_968" x1="2018.48" y1="1523.36" x2="2018.48" y2="2243.36" gradientUnits="userSpaceOnUse">
<stop stop-color="white"/>
<stop offset="0.713542" stop-color="white" stop-opacity="0.7"/>
<stop offset="1" stop-color="white" stop-opacity="0"/>
</linearGradient>
<radialGradient id="paint3_radial_61_968" cx="0" cy="0" r="1" gradientUnits="userSpaceOnUse" gradientTransform="translate(1078 308) rotate(90) scale(308 1078)">
<stop stop-color="white"/>
<stop offset="1" stop-color="white" stop-opacity="0.26"/>
</radialGradient>
<clipPath id="clip0_61_968">
<rect width="1440" height="921.6" fill="white" transform="translate(0 0.60376)"/>
</clipPath>
</defs>
</svg>
