<svg width="1429" height="722" viewBox="0 0 1429 722" fill="none" xmlns="http://www.w3.org/2000/svg">
<rect x="-8" y="-27" width="68.3804" height="68.3804" stroke="white" stroke-opacity="0.02" stroke-width="1.36761"/>
<rect x="60.3803" y="-27" width="68.3804" height="68.3804" stroke="white" stroke-opacity="0.02" stroke-width="1.36761"/>
<rect x="128.761" y="-27" width="68.3804" height="68.3804" stroke="white" stroke-opacity="0.02" stroke-width="1.36761"/>
<rect x="197.141" y="-27" width="68.3804" height="68.3804" stroke="white" stroke-opacity="0.02" stroke-width="1.36761"/>
<rect x="265.522" y="-27" width="68.3804" height="68.3804" stroke="white" stroke-opacity="0.02" stroke-width="1.36761"/>
<rect x="333.902" y="-27" width="68.3804" height="68.3804" stroke="white" stroke-opacity="0.02" stroke-width="1.36761"/>
<rect x="402.283" y="-27" width="68.3804" height="68.3804" stroke="white" stroke-opacity="0.02" stroke-width="1.36761"/>
<rect x="470.663" y="-27" width="68.3804" height="68.3804" stroke="white" stroke-opacity="0.02" stroke-width="1.36761"/>
<rect x="539.043" y="-27" width="68.3804" height="68.3804" stroke="white" stroke-opacity="0.02" stroke-width="1.36761"/>
<rect x="607.424" y="-27" width="68.3804" height="68.3804" stroke="white" stroke-opacity="0.02" stroke-width="1.36761"/>
<rect x="675.804" y="-27" width="68.3804" height="68.3804" stroke="white" stroke-opacity="0.02" stroke-width="1.36761"/>
<rect x="744.185" y="-27" width="68.3804" height="68.3804" stroke="white" stroke-opacity="0.02" stroke-width="1.36761"/>
<rect x="812.565" y="-27" width="68.3804" height="68.3804" stroke="white" stroke-opacity="0.02" stroke-width="1.36761"/>
<rect x="880.945" y="-27" width="68.3804" height="68.3804" stroke="white" stroke-opacity="0.02" stroke-width="1.36761"/>
<rect x="949.326" y="-27" width="68.3804" height="68.3804" stroke="white" stroke-opacity="0.02" stroke-width="1.36761"/>
<rect x="1017.71" y="-27" width="68.3804" height="68.3804" stroke="white" stroke-opacity="0.02" stroke-width="1.36761"/>
<rect x="1086.09" y="-27" width="68.3804" height="68.3804" stroke="white" stroke-opacity="0.02" stroke-width="1.36761"/>
<rect x="1154.47" y="-27" width="68.3804" height="68.3804" stroke="white" stroke-opacity="0.02" stroke-width="1.36761"/>
<rect x="1222.85" y="-27" width="68.3804" height="68.3804" stroke="white" stroke-opacity="0.02" stroke-width="1.36761"/>
<rect x="1291.23" y="-27" width="68.3804" height="68.3804" stroke="white" stroke-opacity="0.02" stroke-width="1.36761"/>
<rect x="1359.61" y="-27" width="68.3804" height="68.3804" stroke="white" stroke-opacity="0.02" stroke-width="1.36761"/>
<rect x="-8" y="41" width="68.3804" height="68.3804" stroke="white" stroke-opacity="0.02" stroke-width="1.36761"/>
<rect x="60.3804" y="41" width="68.3804" height="68.3804" stroke="white" stroke-opacity="0.02" stroke-width="1.36761"/>
<rect x="128.761" y="41" width="68.3804" height="68.3804" fill="white" fill-opacity="0.05" stroke="white" stroke-opacity="0.02" stroke-width="1.36761"/>
<rect x="197.141" y="41" width="68.3804" height="68.3804" stroke="white" stroke-opacity="0.02" stroke-width="1.36761"/>
<rect x="265.522" y="41" width="68.3804" height="68.3804" stroke="white" stroke-opacity="0.02" stroke-width="1.36761"/>
<rect x="333.902" y="41" width="68.3804" height="68.3804" stroke="white" stroke-opacity="0.02" stroke-width="1.36761"/>
<rect x="402.283" y="41" width="68.3804" height="68.3804" stroke="white" stroke-opacity="0.02" stroke-width="1.36761"/>
<rect x="470.663" y="41" width="68.3804" height="68.3804" stroke="white" stroke-opacity="0.02" stroke-width="1.36761"/>
<rect x="539.043" y="41" width="68.3804" height="68.3804" stroke="white" stroke-opacity="0.02" stroke-width="1.36761"/>
<rect x="607.424" y="41" width="68.3804" height="68.3804" fill="white" fill-opacity="0.05" stroke="white" stroke-opacity="0.02" stroke-width="1.36761"/>
<rect x="675.804" y="41" width="68.3804" height="68.3804" stroke="white" stroke-opacity="0.02" stroke-width="1.36761"/>
<rect x="744.185" y="41" width="68.3804" height="68.3804" stroke="white" stroke-opacity="0.02" stroke-width="1.36761"/>
<rect x="812.565" y="41" width="68.3804" height="68.3804" stroke="white" stroke-opacity="0.02" stroke-width="1.36761"/>
<rect x="880.946" y="41" width="68.3804" height="68.3804" stroke="white" stroke-opacity="0.02" stroke-width="1.36761"/>
<rect x="949.326" y="41" width="68.3804" height="68.3804" stroke="white" stroke-opacity="0.02" stroke-width="1.36761"/>
<rect x="1017.71" y="41" width="68.3804" height="68.3804" stroke="white" stroke-opacity="0.02" stroke-width="1.36761"/>
<rect x="1086.09" y="41" width="68.3804" height="68.3804" stroke="white" stroke-opacity="0.02" stroke-width="1.36761"/>
<rect x="1154.47" y="41" width="68.3804" height="68.3804" stroke="white" stroke-opacity="0.02" stroke-width="1.36761"/>
<rect x="1222.85" y="41" width="68.3804" height="68.3804" stroke="white" stroke-opacity="0.02" stroke-width="1.36761"/>
<rect x="1291.23" y="41" width="68.3804" height="68.3804" stroke="white" stroke-opacity="0.02" stroke-width="1.36761"/>
<rect x="1359.61" y="41" width="68.3804" height="68.3804" stroke="white" stroke-opacity="0.02" stroke-width="1.36761"/>
<rect x="-8" y="109" width="68.3804" height="68.3804" stroke="white" stroke-opacity="0.02" stroke-width="1.36761"/>
<rect x="60.3803" y="109" width="68.3804" height="68.3804" stroke="white" stroke-opacity="0.02" stroke-width="1.36761"/>
<rect x="128.761" y="109" width="68.3804" height="68.3804" stroke="white" stroke-opacity="0.02" stroke-width="1.36761"/>
<rect x="197.141" y="109" width="68.3804" height="68.3804" stroke="white" stroke-opacity="0.02" stroke-width="1.36761"/>
<rect x="265.522" y="109" width="68.3804" height="68.3804" stroke="white" stroke-opacity="0.02" stroke-width="1.36761"/>
<rect x="333.902" y="109" width="68.3804" height="68.3804" stroke="white" stroke-opacity="0.02" stroke-width="1.36761"/>
<rect x="402.283" y="109" width="68.3804" height="68.3804" stroke="white" stroke-opacity="0.02" stroke-width="1.36761"/>
<rect x="470.663" y="109" width="68.3804" height="68.3804" stroke="white" stroke-opacity="0.02" stroke-width="1.36761"/>
<rect x="539.043" y="109" width="68.3804" height="68.3804" stroke="white" stroke-opacity="0.02" stroke-width="1.36761"/>
<rect x="607.424" y="109" width="68.3804" height="68.3804" stroke="white" stroke-opacity="0.02" stroke-width="1.36761"/>
<rect x="675.804" y="109" width="68.3804" height="68.3804" stroke="white" stroke-opacity="0.02" stroke-width="1.36761"/>
<rect x="744.185" y="109" width="68.3804" height="68.3804" stroke="white" stroke-opacity="0.02" stroke-width="1.36761"/>
<rect x="812.565" y="109" width="68.3804" height="68.3804" stroke="white" stroke-opacity="0.02" stroke-width="1.36761"/>
<rect x="880.945" y="109" width="68.3804" height="68.3804" stroke="white" stroke-opacity="0.02" stroke-width="1.36761"/>
<rect x="949.326" y="109" width="68.3804" height="68.3804" stroke="white" stroke-opacity="0.02" stroke-width="1.36761"/>
<rect x="1017.71" y="109" width="68.3804" height="68.3804" stroke="white" stroke-opacity="0.02" stroke-width="1.36761"/>
<rect x="1086.09" y="109" width="68.3804" height="68.3804" fill="white" fill-opacity="0.05" stroke="white" stroke-opacity="0.02" stroke-width="1.36761"/>
<rect x="1154.47" y="109" width="68.3804" height="68.3804" stroke="white" stroke-opacity="0.02" stroke-width="1.36761"/>
<rect x="1222.85" y="109" width="68.3804" height="68.3804" stroke="white" stroke-opacity="0.02" stroke-width="1.36761"/>
<rect x="1291.23" y="109" width="68.3804" height="68.3804" stroke="white" stroke-opacity="0.02" stroke-width="1.36761"/>
<rect x="1359.61" y="109" width="68.3804" height="68.3804" stroke="white" stroke-opacity="0.02" stroke-width="1.36761"/>
<rect x="-8" y="176" width="68.3804" height="68.3804" stroke="white" stroke-opacity="0.02" stroke-width="1.36761"/>
<rect x="60.3803" y="176" width="68.3804" height="68.3804" stroke="white" stroke-opacity="0.02" stroke-width="1.36761"/>
<rect x="128.761" y="176" width="68.3804" height="68.3804" stroke="white" stroke-opacity="0.02" stroke-width="1.36761"/>
<rect x="197.141" y="176" width="68.3804" height="68.3804" stroke="white" stroke-opacity="0.02" stroke-width="1.36761"/>
<rect x="265.522" y="176" width="68.3804" height="68.3804" stroke="white" stroke-opacity="0.02" stroke-width="1.36761"/>
<rect x="333.902" y="176" width="68.3804" height="68.3804" stroke="white" stroke-opacity="0.02" stroke-width="1.36761"/>
<rect x="402.283" y="176" width="68.3804" height="68.3804" stroke="white" stroke-opacity="0.02" stroke-width="1.36761"/>
<rect x="470.663" y="176" width="68.3804" height="68.3804" stroke="white" stroke-opacity="0.02" stroke-width="1.36761"/>
<rect x="539.043" y="176" width="68.3804" height="68.3804" stroke="white" stroke-opacity="0.02" stroke-width="1.36761"/>
<rect x="607.424" y="176" width="68.3804" height="68.3804" stroke="white" stroke-opacity="0.02" stroke-width="1.36761"/>
<rect x="675.804" y="176" width="68.3804" height="68.3804" stroke="white" stroke-opacity="0.02" stroke-width="1.36761"/>
<rect x="744.185" y="176" width="68.3804" height="68.3804" stroke="white" stroke-opacity="0.02" stroke-width="1.36761"/>
<rect x="812.565" y="176" width="68.3804" height="68.3804" stroke="white" stroke-opacity="0.02" stroke-width="1.36761"/>
<rect x="880.946" y="176" width="68.3804" height="68.3804" stroke="white" stroke-opacity="0.02" stroke-width="1.36761"/>
<rect x="949.326" y="176" width="68.3804" height="68.3804" stroke="white" stroke-opacity="0.02" stroke-width="1.36761"/>
<rect x="1017.71" y="176" width="68.3804" height="68.3804" stroke="white" stroke-opacity="0.02" stroke-width="1.36761"/>
<rect x="1086.09" y="176" width="68.3804" height="68.3804" stroke="white" stroke-opacity="0.02" stroke-width="1.36761"/>
<rect x="1154.47" y="176" width="68.3804" height="68.3804" stroke="white" stroke-opacity="0.02" stroke-width="1.36761"/>
<rect x="1222.85" y="176" width="68.3804" height="68.3804" stroke="white" stroke-opacity="0.02" stroke-width="1.36761"/>
<rect x="1291.23" y="176" width="68.3804" height="68.3804" stroke="white" stroke-opacity="0.02" stroke-width="1.36761"/>
<rect x="1359.61" y="176" width="68.3804" height="68.3804" stroke="white" stroke-opacity="0.02" stroke-width="1.36761"/>
<rect x="-8" y="244" width="68.3804" height="68.3804" stroke="white" stroke-opacity="0.02" stroke-width="1.36761"/>
<rect x="60.3803" y="244" width="68.3804" height="68.3804" stroke="white" stroke-opacity="0.02" stroke-width="1.36761"/>
<rect x="128.761" y="244" width="68.3804" height="68.3804" stroke="white" stroke-opacity="0.02" stroke-width="1.36761"/>
<rect x="197.141" y="244" width="68.3804" height="68.3804" fill="white" fill-opacity="0.05" stroke="white" stroke-opacity="0.02" stroke-width="1.36761"/>
<rect x="265.522" y="244" width="68.3804" height="68.3804" stroke="white" stroke-opacity="0.02" stroke-width="1.36761"/>
<rect x="333.902" y="244" width="68.3804" height="68.3804" stroke="white" stroke-opacity="0.02" stroke-width="1.36761"/>
<rect x="402.283" y="244" width="68.3804" height="68.3804" stroke="white" stroke-opacity="0.02" stroke-width="1.36761"/>
<rect x="470.663" y="244" width="68.3804" height="68.3804" stroke="white" stroke-opacity="0.02" stroke-width="1.36761"/>
<rect x="539.043" y="244" width="68.3804" height="68.3804" stroke="white" stroke-opacity="0.02" stroke-width="1.36761"/>
<rect x="607.424" y="244" width="68.3804" height="68.3804" stroke="white" stroke-opacity="0.02" stroke-width="1.36761"/>
<rect x="675.804" y="244" width="68.3804" height="68.3804" stroke="white" stroke-opacity="0.02" stroke-width="1.36761"/>
<rect x="744.185" y="244" width="68.3804" height="68.3804" stroke="white" stroke-opacity="0.02" stroke-width="1.36761"/>
<rect x="812.565" y="244" width="68.3804" height="68.3804" fill="white" fill-opacity="0.05" stroke="white" stroke-opacity="0.02" stroke-width="1.36761"/>
<rect x="880.946" y="244" width="68.3804" height="68.3804" stroke="white" stroke-opacity="0.02" stroke-width="1.36761"/>
<rect x="949.326" y="244" width="68.3804" height="68.3804" stroke="white" stroke-opacity="0.02" stroke-width="1.36761"/>
<rect x="1017.71" y="244" width="68.3804" height="68.3804" stroke="white" stroke-opacity="0.02" stroke-width="1.36761"/>
<rect x="1086.09" y="244" width="68.3804" height="68.3804" stroke="white" stroke-opacity="0.02" stroke-width="1.36761"/>
<rect x="1154.47" y="244" width="68.3804" height="68.3804" stroke="white" stroke-opacity="0.02" stroke-width="1.36761"/>
<rect x="1222.85" y="244" width="68.3804" height="68.3804" stroke="white" stroke-opacity="0.02" stroke-width="1.36761"/>
<rect x="1291.23" y="244" width="68.3804" height="68.3804" stroke="white" stroke-opacity="0.02" stroke-width="1.36761"/>
<rect x="1359.61" y="244" width="68.3804" height="68.3804" stroke="white" stroke-opacity="0.02" stroke-width="1.36761"/>
<rect x="-8" y="312" width="68.3804" height="68.3804" stroke="white" stroke-opacity="0.02" stroke-width="1.36761"/>
<rect x="60.3803" y="312" width="68.3804" height="68.3804" stroke="white" stroke-opacity="0.02" stroke-width="1.36761"/>
<rect x="128.761" y="312" width="68.3804" height="68.3804" stroke="white" stroke-opacity="0.02" stroke-width="1.36761"/>
<rect x="197.141" y="312" width="68.3804" height="68.3804" stroke="white" stroke-opacity="0.02" stroke-width="1.36761"/>
<rect x="265.522" y="312" width="68.3804" height="68.3804" stroke="white" stroke-opacity="0.02" stroke-width="1.36761"/>
<rect x="333.902" y="312" width="68.3804" height="68.3804" stroke="white" stroke-opacity="0.02" stroke-width="1.36761"/>
<rect x="402.283" y="312" width="68.3804" height="68.3804" stroke="white" stroke-opacity="0.02" stroke-width="1.36761"/>
<rect x="470.663" y="312" width="68.3804" height="68.3804" stroke="white" stroke-opacity="0.02" stroke-width="1.36761"/>
<rect x="539.043" y="312" width="68.3804" height="68.3804" stroke="white" stroke-opacity="0.02" stroke-width="1.36761"/>
<rect x="607.424" y="312" width="68.3804" height="68.3804" stroke="white" stroke-opacity="0.02" stroke-width="1.36761"/>
<rect x="675.804" y="312" width="68.3804" height="68.3804" stroke="white" stroke-opacity="0.02" stroke-width="1.36761"/>
<rect x="744.185" y="312" width="68.3804" height="68.3804" stroke="white" stroke-opacity="0.02" stroke-width="1.36761"/>
<rect x="812.565" y="312" width="68.3804" height="68.3804" stroke="white" stroke-opacity="0.02" stroke-width="1.36761"/>
<rect x="880.946" y="312" width="68.3804" height="68.3804" stroke="white" stroke-opacity="0.02" stroke-width="1.36761"/>
<rect x="949.326" y="312" width="68.3804" height="68.3804" stroke="white" stroke-opacity="0.02" stroke-width="1.36761"/>
<rect x="1017.71" y="312" width="68.3804" height="68.3804" stroke="white" stroke-opacity="0.02" stroke-width="1.36761"/>
<rect x="1086.09" y="312" width="68.3804" height="68.3804" stroke="white" stroke-opacity="0.02" stroke-width="1.36761"/>
<rect x="1154.47" y="312" width="68.3804" height="68.3804" stroke="white" stroke-opacity="0.02" stroke-width="1.36761"/>
<rect x="1222.85" y="312" width="68.3804" height="68.3804" fill="white" fill-opacity="0.05" stroke="white" stroke-opacity="0.02" stroke-width="1.36761"/>
<rect x="1291.23" y="312" width="68.3804" height="68.3804" stroke="white" stroke-opacity="0.02" stroke-width="1.36761"/>
<rect x="1359.61" y="312" width="68.3804" height="68.3804" stroke="white" stroke-opacity="0.02" stroke-width="1.36761"/>
<rect x="-8" y="380" width="68.3804" height="68.3804" stroke="white" stroke-opacity="0.02" stroke-width="1.36761"/>
<rect x="60.3803" y="380" width="68.3804" height="68.3804" stroke="white" stroke-opacity="0.02" stroke-width="1.36761"/>
<rect x="128.761" y="380" width="68.3804" height="68.3804" stroke="white" stroke-opacity="0.02" stroke-width="1.36761"/>
<rect x="197.141" y="380" width="68.3804" height="68.3804" stroke="white" stroke-opacity="0.02" stroke-width="1.36761"/>
<rect x="265.522" y="380" width="68.3804" height="68.3804" stroke="white" stroke-opacity="0.02" stroke-width="1.36761"/>
<rect x="333.902" y="380" width="68.3804" height="68.3804" stroke="white" stroke-opacity="0.02" stroke-width="1.36761"/>
<rect x="402.283" y="380" width="68.3804" height="68.3804" stroke="white" stroke-opacity="0.02" stroke-width="1.36761"/>
<rect x="470.663" y="380" width="68.3804" height="68.3804" stroke="white" stroke-opacity="0.02" stroke-width="1.36761"/>
<rect x="539.043" y="380" width="68.3804" height="68.3804" stroke="white" stroke-opacity="0.02" stroke-width="1.36761"/>
<rect x="607.424" y="380" width="68.3804" height="68.3804" stroke="white" stroke-opacity="0.02" stroke-width="1.36761"/>
<rect x="675.804" y="380" width="68.3804" height="68.3804" stroke="white" stroke-opacity="0.02" stroke-width="1.36761"/>
<rect x="744.185" y="380" width="68.3804" height="68.3804" stroke="white" stroke-opacity="0.02" stroke-width="1.36761"/>
<rect x="812.565" y="380" width="68.3804" height="68.3804" stroke="white" stroke-opacity="0.02" stroke-width="1.36761"/>
<rect x="880.945" y="380" width="68.3804" height="68.3804" stroke="white" stroke-opacity="0.02" stroke-width="1.36761"/>
<rect x="949.326" y="380" width="68.3804" height="68.3804" stroke="white" stroke-opacity="0.02" stroke-width="1.36761"/>
<rect x="1017.71" y="380" width="68.3804" height="68.3804" stroke="white" stroke-opacity="0.02" stroke-width="1.36761"/>
<rect x="1086.09" y="380" width="68.3804" height="68.3804" stroke="white" stroke-opacity="0.02" stroke-width="1.36761"/>
<rect x="1154.47" y="380" width="68.3804" height="68.3804" stroke="white" stroke-opacity="0.02" stroke-width="1.36761"/>
<rect x="1222.85" y="380" width="68.3804" height="68.3804" stroke="white" stroke-opacity="0.02" stroke-width="1.36761"/>
<rect x="1291.23" y="380" width="68.3804" height="68.3804" stroke="white" stroke-opacity="0.02" stroke-width="1.36761"/>
<rect x="1359.61" y="380" width="68.3804" height="68.3804" stroke="white" stroke-opacity="0.02" stroke-width="1.36761"/>
<rect x="-8" y="449" width="68.3804" height="68.3804" stroke="white" stroke-opacity="0.02" stroke-width="1.36761"/>
<rect x="60.3803" y="449" width="68.3804" height="68.3804" stroke="white" stroke-opacity="0.02" stroke-width="1.36761"/>
<rect x="128.761" y="449" width="68.3804" height="68.3804" stroke="white" stroke-opacity="0.02" stroke-width="1.36761"/>
<rect x="197.141" y="449" width="68.3804" height="68.3804" stroke="white" stroke-opacity="0.02" stroke-width="1.36761"/>
<rect x="265.522" y="449" width="68.3804" height="68.3804" stroke="white" stroke-opacity="0.02" stroke-width="1.36761"/>
<rect x="333.902" y="449" width="68.3804" height="68.3804" stroke="white" stroke-opacity="0.02" stroke-width="1.36761"/>
<rect x="402.283" y="449" width="68.3804" height="68.3804" stroke="white" stroke-opacity="0.02" stroke-width="1.36761"/>
<rect x="470.663" y="449" width="68.3804" height="68.3804" stroke="white" stroke-opacity="0.02" stroke-width="1.36761"/>
<rect x="539.043" y="449" width="68.3804" height="68.3804" fill="white" fill-opacity="0.05" stroke="white" stroke-opacity="0.02" stroke-width="1.36761"/>
<rect x="607.424" y="449" width="68.3804" height="68.3804" stroke="white" stroke-opacity="0.02" stroke-width="1.36761"/>
<rect x="675.804" y="449" width="68.3804" height="68.3804" stroke="white" stroke-opacity="0.02" stroke-width="1.36761"/>
<rect x="744.185" y="449" width="68.3804" height="68.3804" stroke="white" stroke-opacity="0.02" stroke-width="1.36761"/>
<rect x="812.565" y="449" width="68.3804" height="68.3804" stroke="white" stroke-opacity="0.02" stroke-width="1.36761"/>
<rect x="880.945" y="449" width="68.3804" height="68.3804" stroke="white" stroke-opacity="0.02" stroke-width="1.36761"/>
<rect x="949.326" y="449" width="68.3804" height="68.3804" stroke="white" stroke-opacity="0.02" stroke-width="1.36761"/>
<rect x="1017.71" y="449" width="68.3804" height="68.3804" stroke="white" stroke-opacity="0.02" stroke-width="1.36761"/>
<rect x="1086.09" y="449" width="68.3804" height="68.3804" stroke="white" stroke-opacity="0.02" stroke-width="1.36761"/>
<rect x="1154.47" y="449" width="68.3804" height="68.3804" stroke="white" stroke-opacity="0.02" stroke-width="1.36761"/>
<rect x="1222.85" y="449" width="68.3804" height="68.3804" stroke="white" stroke-opacity="0.02" stroke-width="1.36761"/>
<rect x="1291.23" y="449" width="68.3804" height="68.3804" stroke="white" stroke-opacity="0.02" stroke-width="1.36761"/>
<rect x="1359.61" y="449" width="68.3804" height="68.3804" stroke="white" stroke-opacity="0.02" stroke-width="1.36761"/>
<rect x="-8" y="517" width="68.3804" height="68.3804" stroke="white" stroke-opacity="0.02" stroke-width="1.36761"/>
<rect x="60.3803" y="517" width="68.3804" height="68.3804" stroke="white" stroke-opacity="0.02" stroke-width="1.36761"/>
<rect x="128.761" y="517" width="68.3804" height="68.3804" stroke="white" stroke-opacity="0.02" stroke-width="1.36761"/>
<rect x="197.141" y="517" width="68.3804" height="68.3804" stroke="white" stroke-opacity="0.02" stroke-width="1.36761"/>
<rect x="265.522" y="517" width="68.3804" height="68.3804" fill="white" fill-opacity="0.05" stroke="white" stroke-opacity="0.02" stroke-width="1.36761"/>
<rect x="333.902" y="517" width="68.3804" height="68.3804" stroke="white" stroke-opacity="0.02" stroke-width="1.36761"/>
<rect x="402.283" y="517" width="68.3804" height="68.3804" stroke="white" stroke-opacity="0.02" stroke-width="1.36761"/>
<rect x="470.663" y="517" width="68.3804" height="68.3804" stroke="white" stroke-opacity="0.02" stroke-width="1.36761"/>
<rect x="539.043" y="517" width="68.3804" height="68.3804" stroke="white" stroke-opacity="0.02" stroke-width="1.36761"/>
<rect x="607.424" y="517" width="68.3804" height="68.3804" stroke="white" stroke-opacity="0.02" stroke-width="1.36761"/>
<rect x="675.804" y="517" width="68.3804" height="68.3804" stroke="white" stroke-opacity="0.02" stroke-width="1.36761"/>
<rect x="744.185" y="517" width="68.3804" height="68.3804" stroke="white" stroke-opacity="0.02" stroke-width="1.36761"/>
<rect x="812.565" y="517" width="68.3804" height="68.3804" stroke="white" stroke-opacity="0.02" stroke-width="1.36761"/>
<rect x="880.945" y="517" width="68.3804" height="68.3804" stroke="white" stroke-opacity="0.02" stroke-width="1.36761"/>
<rect x="949.326" y="517" width="68.3804" height="68.3804" stroke="white" stroke-opacity="0.02" stroke-width="1.36761"/>
<rect x="1017.71" y="517" width="68.3804" height="68.3804" stroke="white" stroke-opacity="0.02" stroke-width="1.36761"/>
<rect x="1086.09" y="517" width="68.3804" height="68.3804" stroke="white" stroke-opacity="0.02" stroke-width="1.36761"/>
<rect x="1154.47" y="517" width="68.3804" height="68.3804" stroke="white" stroke-opacity="0.02" stroke-width="1.36761"/>
<rect x="1222.85" y="517" width="68.3804" height="68.3804" stroke="white" stroke-opacity="0.02" stroke-width="1.36761"/>
<rect x="1291.23" y="517" width="68.3804" height="68.3804" stroke="white" stroke-opacity="0.02" stroke-width="1.36761"/>
<rect x="1359.61" y="517" width="68.3804" height="68.3804" stroke="white" stroke-opacity="0.02" stroke-width="1.36761"/>
<rect x="-8" y="585" width="68.3804" height="68.3804" stroke="white" stroke-opacity="0.02" stroke-width="1.36761"/>
<rect x="60.3804" y="585" width="68.3804" height="68.3804" stroke="white" stroke-opacity="0.02" stroke-width="1.36761"/>
<rect x="128.761" y="585" width="68.3804" height="68.3804" stroke="white" stroke-opacity="0.02" stroke-width="1.36761"/>
<rect x="197.141" y="585" width="68.3804" height="68.3804" stroke="white" stroke-opacity="0.02" stroke-width="1.36761"/>
<rect x="265.522" y="585" width="68.3804" height="68.3804" stroke="white" stroke-opacity="0.02" stroke-width="1.36761"/>
<rect x="333.902" y="585" width="68.3804" height="68.3804" stroke="white" stroke-opacity="0.02" stroke-width="1.36761"/>
<rect x="402.283" y="585" width="68.3804" height="68.3804" stroke="white" stroke-opacity="0.02" stroke-width="1.36761"/>
<rect x="470.663" y="585" width="68.3804" height="68.3804" stroke="white" stroke-opacity="0.02" stroke-width="1.36761"/>
<rect x="539.043" y="585" width="68.3804" height="68.3804" stroke="white" stroke-opacity="0.02" stroke-width="1.36761"/>
<rect x="607.424" y="585" width="68.3804" height="68.3804" stroke="white" stroke-opacity="0.02" stroke-width="1.36761"/>
<rect x="675.804" y="585" width="68.3804" height="68.3804" stroke="white" stroke-opacity="0.02" stroke-width="1.36761"/>
<rect x="744.185" y="585" width="68.3804" height="68.3804" stroke="white" stroke-opacity="0.02" stroke-width="1.36761"/>
<rect x="812.565" y="585" width="68.3804" height="68.3804" stroke="white" stroke-opacity="0.02" stroke-width="1.36761"/>
<rect x="880.946" y="585" width="68.3804" height="68.3804" stroke="white" stroke-opacity="0.02" stroke-width="1.36761"/>
<rect x="949.326" y="585" width="68.3804" height="68.3804" stroke="white" stroke-opacity="0.02" stroke-width="1.36761"/>
<rect x="1017.71" y="585" width="68.3804" height="68.3804" stroke="white" stroke-opacity="0.02" stroke-width="1.36761"/>
<rect x="1086.09" y="585" width="68.3804" height="68.3804" stroke="white" stroke-opacity="0.02" stroke-width="1.36761"/>
<rect x="1154.47" y="585" width="68.3804" height="68.3804" stroke="white" stroke-opacity="0.02" stroke-width="1.36761"/>
<rect x="1222.85" y="585" width="68.3804" height="68.3804" stroke="white" stroke-opacity="0.02" stroke-width="1.36761"/>
<rect x="1291.23" y="585" width="68.3804" height="68.3804" stroke="white" stroke-opacity="0.02" stroke-width="1.36761"/>
<rect x="1359.61" y="585" width="68.3804" height="68.3804" stroke="white" stroke-opacity="0.02" stroke-width="1.36761"/>
<rect x="-8" y="653" width="68.3804" height="68.3804" stroke="white" stroke-opacity="0.02" stroke-width="1.36761"/>
<rect x="60.3803" y="653" width="68.3804" height="68.3804" stroke="white" stroke-opacity="0.02" stroke-width="1.36761"/>
<rect x="128.761" y="653" width="68.3804" height="68.3804" stroke="white" stroke-opacity="0.02" stroke-width="1.36761"/>
<rect x="197.141" y="653" width="68.3804" height="68.3804" stroke="white" stroke-opacity="0.02" stroke-width="1.36761"/>
<rect x="265.522" y="653" width="68.3804" height="68.3804" stroke="white" stroke-opacity="0.02" stroke-width="1.36761"/>
<rect x="333.902" y="653" width="68.3804" height="68.3804" stroke="white" stroke-opacity="0.02" stroke-width="1.36761"/>
<rect x="402.283" y="653" width="68.3804" height="68.3804" stroke="white" stroke-opacity="0.02" stroke-width="1.36761"/>
<rect x="470.663" y="653" width="68.3804" height="68.3804" stroke="white" stroke-opacity="0.02" stroke-width="1.36761"/>
<rect x="539.043" y="653" width="68.3804" height="68.3804" stroke="white" stroke-opacity="0.02" stroke-width="1.36761"/>
<rect x="607.424" y="653" width="68.3804" height="68.3804" stroke="white" stroke-opacity="0.02" stroke-width="1.36761"/>
<rect x="675.804" y="653" width="68.3804" height="68.3804" stroke="white" stroke-opacity="0.02" stroke-width="1.36761"/>
<rect x="744.185" y="653" width="68.3804" height="68.3804" stroke="white" stroke-opacity="0.02" stroke-width="1.36761"/>
<rect x="812.565" y="653" width="68.3804" height="68.3804" stroke="white" stroke-opacity="0.02" stroke-width="1.36761"/>
<rect x="880.945" y="653" width="68.3804" height="68.3804" stroke="white" stroke-opacity="0.02" stroke-width="1.36761"/>
<rect x="949.326" y="653" width="68.3804" height="68.3804" stroke="white" stroke-opacity="0.02" stroke-width="1.36761"/>
<rect x="1017.71" y="653" width="68.3804" height="68.3804" stroke="white" stroke-opacity="0.02" stroke-width="1.36761"/>
<rect x="1086.09" y="653" width="68.3804" height="68.3804" stroke="white" stroke-opacity="0.02" stroke-width="1.36761"/>
<rect x="1154.47" y="653" width="68.3804" height="68.3804" stroke="white" stroke-opacity="0.02" stroke-width="1.36761"/>
<rect x="1222.85" y="653" width="68.3804" height="68.3804" stroke="white" stroke-opacity="0.02" stroke-width="1.36761"/>
<rect x="1291.23" y="653" width="68.3804" height="68.3804" stroke="white" stroke-opacity="0.02" stroke-width="1.36761"/>
<rect x="1359.61" y="653" width="68.3804" height="68.3804" stroke="white" stroke-opacity="0.02" stroke-width="1.36761"/>
</svg>
